<svg id="Capa_1" enable-background="new 0 0 512 512" height="512" viewBox="0 0 512 512" width="512" xmlns="http://www.w3.org/2000/svg"><g><g><g><path d="m467.304 493.419 9-28.524v-35.359c0-69.992-49.489-128.419-115.383-142.214-13.644 7.246-29.207 11.357-45.733 11.357-16.526 0-32.089-4.111-45.733-11.357-65.894 13.794-115.383 72.222-115.383 142.214v35.359l9 28.524 155.612 9z" fill="#f4594e"/><path d="m188.076 166.665s-28.05-37.79-29.252-92.45c-.067-3.058 2.643-5.438 5.673-5.021 6.266.862 16.729 1.597 26.371-1.003 29.464-7.946 58.454-66.401 109.532-68.104s60.983 22.134 60.983 22.134 18.79-11.17 46.848-7.378c41.997 5.675 78.887 69.657 41.394 157.551z" fill="#565e75"/><path d="m173.951 183.919c0 18.953 15.405 30.12 28.96 30.12l14.635-12.763c0-.081 12.766-17.275 12.766-17.357l-12.772-17.372c-4.341-2.387-9.326-3.747-14.63-3.747-13.554-.001-25.032 8.869-28.959 21.119z" fill="#ebbaa1"/><path d="m202.911 205.039c-13.554 0-25.033-8.87-28.96-21.12-.939 2.929-1.451 6.049-1.451 9.29 0 16.795 13.615 30.41 30.41 30.41 5.985 0 11.561-1.736 16.266-4.721l7.973-10.63-9.603-6.992c-4.343 2.392-9.327 3.763-14.635 3.763z" fill="#e8a990"/><path d="m456.425 183.919c0 18.953-15.405 30.12-28.959 30.12l-14.635-12.763c0-.081-12.766-17.275-12.766-17.357l12.772-17.372c4.341-2.387 9.326-3.747 14.63-3.747 13.553-.001 25.031 8.869 28.958 21.119z" fill="#ebbaa1"/><path d="m427.466 205.039c13.554 0 25.032-8.87 28.959-21.12.939 2.929 1.451 6.049 1.451 9.29 0 16.795-13.615 30.41-30.41 30.41-5.985 0-11.561-1.736-16.266-4.721l-7.973-10.63 9.603-6.992c4.343 2.392 9.327 3.763 14.636 3.763z" fill="#e8a990"/><path d="m315.188 289.099c53.929 0 97.648-37.889 97.648-106.647v-28.036c0-8.548-3.48-16.772-9.762-22.568-18.233-16.82-38.53-45.919-46.683-58.071-1.872-2.79-5.844-3.05-8.113-.572-41.13 44.921-94.407 59.891-118.246 64.548-7.263 1.419-12.49 7.791-12.49 15.191v29.508c-.001 64.885 43.717 106.647 97.646 106.647z" fill="#fdd4bb"/><path d="m235.845 512h158.684l7.742-9.29-7.742-9.291h-158.684l-7.741 9.291z" fill="#e84642"/><path d="m269.149 287.16c-.094 1.201-.156 2.41-.156 3.634 0 25.513 20.682 46.195 46.195 46.195s46.195-20.682 46.195-46.195c0-1.224-.062-2.434-.156-3.634z" fill="#ebbaa1"/><path d="m476.304 493.419-37.016 9-37.016-9v-28.524h74.032z" fill="#fdd4bb"/><path d="m154.072 493.419 37.016 9 37.016-9v-28.524h-74.032z" fill="#fdd4bb"/><path d="m410.013 512h61.291c2.762 0 5-2.239 5-5v-13.581h-66.291l-7.742 9.29z" fill="#f7c4a8"/><path d="m159.072 512h61.29l7.742-9.29-7.742-9.29h-66.29v13.58c0 2.761 2.238 5 5 5z" fill="#f7c4a8"/><g><path d="m410.013 493.419v-72.792c0-4.276-3.466-7.742-7.742-7.742s-7.742 3.466-7.742 7.742v72.792l7.742 9.29z" fill="#db4040"/><path d="m394.529 493.419h15.484v18.581h-15.484z" fill="#c63c3c"/><path d="m235.845 493.419v-72.792c0-4.276-3.466-7.742-7.742-7.742s-7.742 3.466-7.742 7.742v72.792l7.742 9.29z" fill="#db4040"/><path d="m220.362 493.419h15.484v18.581h-15.484z" fill="#c63c3c"/></g><path d="m315.188 280.099c-53.929 0-97.648-43.718-97.648-97.647v18.581c0 53.929 43.718 97.647 97.647 97.647 53.929 0 97.647-43.718 97.647-97.647v-18.581c.002 53.928-43.717 97.647-97.646 97.647z" fill="#f7c4a8"/></g><g><path d="m315.188 215.809c-15.377 0-28.185 10.997-30.989 25.555-.598 3.107 1.74 6.004 4.904 6.004h52.17c3.164 0 5.502-2.897 4.904-6.004-2.804-14.558-15.612-25.555-30.989-25.555z" fill="#f4594e"/></g><g><path d="m95.322 230.785 22.358 9c8.69 0 15.734-9.361 15.734-24.734v-9.668c0-8.69-7.044-15.734-15.734-15.734h-27.017l-6.527 21.835z" fill="#ffde91"/><path d="m117.68 230.785h-22.359l-7.88 9.892 9.984 8.689h20.254c8.69 0 15.734-7.044 15.734-15.734v-18.582c.001 8.69-7.043 15.735-15.733 15.735z" fill="#ffce6e"/><path d="m65.918 71.245-.225-1.872c-.935-7.778-7.534-13.631-15.369-13.631h-15.235c-8.663 0-15.503 7.068-15.476 15.503l23.153 9z" fill="#ffde91"/><path d="m19.613 71.245c.002.602.033 1.21.107 1.824l2.015 16.757 22.148 9 24.27-9-2.234-18.581z" fill="#ffce6e"/><path d="m25.816 208.105c4.614 24.103 15.732 31.68 29.827 31.68l39.678-9-15.461-136.522c-.286-2.527-2.424-4.437-4.968-4.437h-56.873c-2.984 0-5.304 2.597-4.968 5.563z" fill="#adf0ff"/><path d="m55.643 230.785c-14.095 0-26.172-9.474-29.827-22.68l1.561 13.786c1.772 15.65 15.012 27.475 30.762 27.475h39.286l-2.104-18.581z" fill="#8deaf5"/></g></g><g><g fill="#565e75"><path d="m259.187 189.883c.556-.152 13.744-3.843 25.052-14.95 3.059-3.005 3.103-7.921.099-10.98s-7.92-3.104-10.98-.098c-8.265 8.117-18.068 10.992-18.289 11.056-4.119 1.141-6.542 5.4-5.416 9.526.942 3.452 4.071 5.722 7.486 5.722.676 0 1.363-.089 2.048-.276z"/><path d="m371.433 189.883c.683.187 1.369.276 2.045.276 3.399 0 6.509-2.258 7.463-5.693 1.144-4.119-1.273-8.392-5.386-9.555-.099-.028-9.975-2.887-18.292-11.057-3.059-3.005-7.975-2.959-10.98.098-3.005 3.059-2.961 7.976.099 10.98 11.308 11.108 24.495 14.799 25.051 14.951z"/></g><g fill="#ffde91"><path d="m139.397 344.912c-1.442 0-2.9-.401-4.202-1.241-3.604-2.324-4.64-7.13-2.316-10.733 14.983-23.226 33.381-42.529 53.208-55.823 3.562-2.387 8.385-1.437 10.773 2.125s1.437 8.385-2.125 10.773c-18.084 12.126-34.961 29.879-48.806 51.342-1.485 2.302-3.983 3.557-6.532 3.557z"/><path d="m139.4 297.938c-1.733 0-3.475-.577-4.918-1.761-3.312-2.717-3.8-7.599-1.087-10.915.488-.596 12.171-14.746 30.818-26.539 3.626-2.29 8.422-1.21 10.712 2.412 2.292 3.624 1.212 8.42-2.412 10.712-16.427 10.389-27.002 23.13-27.107 23.257-1.536 1.866-3.762 2.834-6.006 2.834z"/><path d="m491.223 344.912c-2.55 0-5.047-1.255-6.532-3.557-13.845-21.463-30.721-39.217-48.805-51.342-3.562-2.388-4.513-7.211-2.125-10.773s7.213-4.511 10.772-2.125c19.826 13.294 38.224 32.597 53.206 55.823 2.325 3.603 1.288 8.409-2.316 10.733-1.299.839-2.758 1.241-4.2 1.241z"/><path d="m491.221 297.943c-2.245 0-4.472-.968-6.007-2.839-.105-.127-10.679-12.869-27.107-23.257-3.624-2.292-4.704-7.088-2.412-10.712 2.292-3.623 7.088-4.704 10.712-2.412 18.647 11.793 30.329 25.943 30.817 26.539 2.716 3.319 2.227 8.21-1.092 10.927-1.441 1.179-3.182 1.754-4.911 1.754z"/></g></g></g></svg>