<svg height="512" viewBox="0 0 58 36" width="512" xmlns="http://www.w3.org/2000/svg"><g id="Page-1" fill="none" fill-rule="evenodd"><g id="040---Cataract" fill-rule="nonzero"><path id="Shape" d="m.01 18c.00118384-.063791.00787538-.1273606.02-.19 2.49-10.13 14.51-17.81 28.97-17.81s26.48 7.68 28.97 17.81c.0266517.1252647.0266517.2547353 0 .38-2.49 10.13-14.51 17.81-28.97 17.81s-26.48-7.68-28.97-17.81c-.01212462-.0626394-.01881616-.126209-.02-.19z" fill="#fdd7ad"/><path id="Shape" d="m.01 18c.00117362-.0430176.00789584-.0857037.02-.127 2.49-6.753 14.51-11.873 28.97-11.873s26.48 5.12 28.97 11.873c.0266819.0825645.0266819.1714355 0 .254-2.49 6.753-14.51 11.873-28.97 11.873s-26.48-5.12-28.97-11.873c-.01210416-.0412963-.01882638-.0839824-.02-.127z" fill="#f9c795"/><path id="Shape" d="m56.967 17.841c.0439455.1014453.0439455.2165547 0 .318-2.4 5.595-14.009 9.841-27.967 9.841s-25.567-4.246-27.967-9.841c-.04394551-.1014453-.04394551-.2165547 0-.318 2.4-5.595 14.009-9.841 27.967-9.841s25.567 4.246 27.967 9.841z" fill="#ecf0f1"/><path id="Shape" d="m43 18c.0080671 3.3591546-1.2036595 6.6070084-3.41 9.14-3.5001971.5785948-7.0423089.866245-10.59.86-3.5476911.006245-7.0898029-.2814052-10.59-.86-4.5467564-5.2451525-4.5467564-13.0348475 0-18.28 7.0134398-1.14667346 14.1665602-1.14667346 21.18 0 2.2063405 2.5329916 3.4180671 5.7808454 3.41 9.14z" fill="#67b9cc"/><path id="Shape" d="m6 18c.00764517 1.578354-.20438826 3.1500939-.63 4.67-1.8661206-1.0342028-3.37822651-2.6055386-4.34-4.51-.03996764-.1029227-.03996764-.2170773 0-.32.96177349-1.9044614 2.4738794-3.4757972 4.34-4.51.42561174 1.5199061.63764517 3.091646.63 4.67z" fill="#f09372"/><path id="Shape" d="m56.97 18.16c-.8 1.86-2.61 3.57-5.18 5.02-1.0533036-3.3730161-1.0533036-6.9869839 0-10.36 2.57 1.45 4.38 3.16 5.18 5.02.0399676.1029227.0399676.2170773 0 .32z" fill="#f09372"/><g fill="#9fc9d3"><path id="Shape" d="m33 25c-.4043959-.0000863-.7689341-.2437275-.923678-.6173454-.1547439-.373618-.0692299-.8036603.216678-1.0896546l5-5c.3923789-.3789722 1.0160848-.3735524 1.4018186.0121814s.3911536 1.0094397.0121814 1.4018186l-5 5c-.1874927.1875494-.4418052.2929434-.707.293z"/><path id="Shape" d="m20 18c-.4043959-.0000863-.7689341-.2437275-.923678-.6173454-.1547439-.373618-.0692299-.8036603.216678-1.0896546l5-5c.3923789-.3789722 1.0160848-.3735524 1.4018186.0121814s.3911536 1.0094397.0121814 1.4018186l-5 5c-.1874927.1875494-.4418052.2929434-.707.293z"/><path id="Shape" d="m26 25c-.4043959-.0000863-.7689341-.2437275-.923678-.6173454-.1547439-.373618-.0692299-.8036603.216678-1.0896546l10-10c.3923789-.3789722 1.0160848-.3735524 1.4018186.0121814s.3911536 1.0094397.0121814 1.4018186l-10 10c-.1874927.1875494-.4418052.2929434-.707.293z"/><path id="Shape" d="m22 23c-.4043959-.0000863-.7689341-.2437275-.923678-.6173454-.1547439-.373618-.0692299-.8036603.216678-1.0896546l10-10c.3923789-.3789722 1.0160848-.3735524 1.4018186.0121814s.3911536 1.0094397.0121814 1.4018186l-10 10c-.1874927.1875494-.4418052.2929434-.707.293z"/></g></g></g></svg>