<svg height="512" viewBox="0 0 512 512" width="512" xmlns="http://www.w3.org/2000/svg"><g id="Flat"><path d="m424 192v128a168 168 0 0 1 -336 0v-128a120.005 120.005 0 0 1 120-120h96a120.005 120.005 0 0 1 120 120z" fill="#fdc8a2"/><path d="m88 208v-64a72 72 0 0 1 72-72v64z" fill="#663723"/><path d="m424 224-72-88h-208a80 80 0 0 1 -80-80v-32h240a120 120 0 0 1 120 120z" fill="#91563a"/><path d="m80 208h8a0 0 0 0 1 0 0v96a0 0 0 0 1 0 0h-8a48 48 0 0 1 -48-48 48 48 0 0 1 48-48z" fill="#fdb683"/><path d="m472 208h8a0 0 0 0 1 0 0v96a0 0 0 0 1 0 0h-8a48 48 0 0 1 -48-48 48 48 0 0 1 48-48z" fill="#fdb683" transform="matrix(-1 0 0 -1 904 512)"/><path d="m207.716 292h56.569v16.001h-56.569z" fill="#fcb079" transform="matrix(.141 -.99 .99 .141 -94.359 491.205)"/><path d="m357.057 217.221a85.588 85.588 0 0 1 -56.68-21.469l10.586-12a69.614 69.614 0 0 0 70.575 13.024l5.606 14.987a85.841 85.841 0 0 1 -30.087 5.458z" fill="#91563a"/><path d="m128 248h80v16h-80z" fill="#91563a"/><path d="m304 248h80v16h-80z" fill="#91563a"/><rect fill="#fcb079" height="32" rx="16" width="128" x="192" y="360"/><path d="m448 316.232v-260.232a32 32 0 0 0 -32-32 32 32 0 0 0 -32 32v260.232a48 48 0 1 0 64 0z" fill="#85ccd5"/><circle cx="416" cy="352" fill="#d65246" r="24"/><path d="m408 64h16v272h-16z" fill="#78b9c1"/><path d="m408 80h16v256h-16z" fill="#d65246"/><g fill="#2d96c3"><path d="m384 288h24v16h-24z"/><path d="m384 256h16v16h-16z"/><path d="m384 224h24v16h-24z"/><path d="m384 192h16v16h-16z"/><path d="m384 160h24v16h-24z"/><path d="m384 128h16v16h-16z"/><path d="m384 96h24v16h-24z"/></g><path d="m144 56h-80a40 40 0 0 0 -40 40v80a40 40 0 0 0 40 40h8l52.679 57.194a20.276 20.276 0 0 0 27.321 2.75c9.285-6.964 9.767-19.424 2.337-28.34l-26.337-31.604h116a20 20 0 0 0 20-20 20 20 0 0 0 -20-20 20 20 0 0 0 20-20 20 20 0 0 0 -20-20 20 20 0 0 0 20-20 20 20 0 0 0 -20-20 20 20 0 0 0 20-20 20 20 0 0 0 -20-20z" fill="#ffd4b5"/><g fill="#fdb683"><path d="m160 88h88v16h-88z"/><path d="m160 128h88v16h-88z"/><path d="m160 168h88v16h-88z"/><path d="m136 216h-16c0-30.756-7.863-51.327-14.459-63.168-7.107-12.759-14.313-18.411-14.386-18.466l9.645-12.766c1.437 1.078 35.2 27.173 35.2 94.4z"/></g></g></svg>