<svg height="512" viewBox="0 0 128 128" width="512" xmlns="http://www.w3.org/2000/svg"><g fill="#e03f3f"><path d="m36.661 60 5.121-15.552a4 4 0 0 1 7.69.317l4.161 17.335 6.537-21.68a4 4 0 0 1 3.83-2.845 4 4 0 0 1 3.827 2.855l6.679 22.339 4.953-18.426a4 4 0 0 1 3.794-2.961h.07a4 4 0 0 1 3.823 2.827l4.847 15.791h14.745c4.555-10.669 2.792-23.748-5.292-32.551a24.977 24.977 0 0 0 -37.442 0 24.977 24.977 0 0 0 -37.446 0c-8.085 8.8-9.848 21.881-5.29 32.551z"/><path d="m101.644 68h-12.608a4 4 0 0 1 -3.824-2.827l-1.632-5.324-5 18.606a4 4 0 0 1 -3.808 2.961h-.056a4 4 0 0 1 -3.831-2.855l-6.9-23.076-6.961 23.086a4 4 0 0 1 -3.824 2.846h-.115a4 4 0 0 1 -3.775-3.065l-4.332-18.03-1.624 4.929a4 4 0 0 1 -3.798 2.749h-13.192c.066.073.127.15.194.223l37.442 40.777 37.445-40.777c.071-.073.133-.15.199-.223z"/></g></svg>