<svg id="Flat" height="512" viewBox="0 0 512 512" width="512" xmlns="http://www.w3.org/2000/svg"><path d="m376 488-8-128 16.614-138.447a55 55 0 0 0 -54.609-61.553h-212.005a55 55 0 0 0 -54.609 61.553l16.609 138.447-8 128z" fill="#f7c9a8"/><g fill="#e89080"><path d="m319.24 320h4.76a8 8 0 0 0 7.534-5.309l17.31-48.467a8 8 0 0 0 -4.844-10.224 8 8 0 0 0 -10.225 4.843l-15.413 43.157h-54.362a8 8 0 0 0 -8 8 8 8 0 0 0 8 8h39.16l-7.12 71.2a8 8 0 0 0 .2 2.736l22.06 88.239a8 8 0 0 0 9.7 5.825 8 8 0 0 0 5.821-9.7l-21.721-86.889z"/><path d="m144 272h16v16h-16z"/><path d="m104 256a8 8 0 0 0 -4.843 10.224l17.31 48.467a8 8 0 0 0 7.533 5.309h4.76l7.141 71.411-21.722 86.889a8 8 0 0 0 5.821 9.7 8 8 0 0 0 9.7-5.821l22.06-88.239a8 8 0 0 0 .2-2.736l-7.12-71.204h39.16a8 8 0 0 0 8-8 8 8 0 0 0 -8-8h-54.362l-15.413-43.157a8 8 0 0 0 -10.225-4.843z"/><path d="m216 456h16v16h-16z"/><path d="m192 200h-40a8 8 0 0 0 -8 8 8 8 0 0 0 8 8h36.687l8 8a8 8 0 0 0 11.313 0 8 8 0 0 0 0-11.314l-10.343-10.343a8 8 0 0 0 -5.657-2.343z"/></g><circle cx="360" cy="152" fill="#e53d5d" r="128"/><path d="m288 80h16v16h-16z" fill="#85bb40"/><path d="m448 120h16v16h-16z" fill="#85bb40"/><path d="m416 216h16v16h-16z" fill="#85bb40"/><path d="m288 208h16v16h-16z" fill="#85bb40"/><path d="m277.657 197.657-11.314-11.314 12-12a8.98 8.98 0 0 0 0-12.686 25 25 0 0 1 0-35.314l12-12 11.314 11.314-12 12a8.98 8.98 0 0 0 0 12.686 25 25 0 0 1 0 35.314z" fill="#fbbe1f"/><path d="m394.343 253.657-12-12a8.969 8.969 0 0 0 -12.686 0 24.97 24.97 0 0 1 -35.314 0l-12-12 11.314-11.314 12 12a8.969 8.969 0 0 0 12.686 0 24.97 24.97 0 0 1 35.314 0l12 12z" fill="#fbbe1f"/><rect fill="#0093b9" height="48" rx="24" transform="matrix(-1 0 0 -1 768 320)" width="96" x="336" y="136"/><path d="m456 168v-16h-17.013a32.092 32.092 0 0 0 -12.7-18.237l6.136-8.59a28.567 28.567 0 0 0 -23.247-45.173h-57.176a8 8 0 0 1 0-16h32v-16h-32a24 24 0 0 0 0 48h57.176a12.567 12.567 0 0 1 10.224 19.873l-8.747 12.246c-.876-.072-1.76-.119-2.655-.119v-16h-15.998v16h-16v-16h-16v16a31.8 31.8 0 0 0 -16.242 4.444l-11.071-11.071-11.315 11.313 11.072 11.072a31.826 31.826 0 0 0 -3.431 8.242h-17.013v16h17.013a31.826 31.826 0 0 0 3.431 8.242l-11.072 11.072 11.315 11.313 11.071-11.071a31.8 31.8 0 0 0 16.242 4.444v16h16v-16h16v16h16v-16a31.8 31.8 0 0 0 16.242-4.444l11.071 11.071 11.315-11.313-11.072-11.072a31.826 31.826 0 0 0 3.431-8.242zm-96 8a16 16 0 0 1 0-32h39.312l-5.822 8.15 13.02 9.3 10.482-14.675a15.994 15.994 0 0 1 -8.992 29.225z" fill="#85bb40"/><path d="m254.673 397.544a32.056 32.056 0 0 0 -6.915-33.788l63.318-120.023-14.152-7.466-62.871 119.174a31.994 31.994 0 1 0 20.62 42.1zm-14.936-5.738a16 16 0 1 1 -9.2-20.675 15.9 15.9 0 0 1 9.2 20.675z" fill="#e53d5d"/><path d="m224.105 338.062-.21-16a64.042 64.042 0 0 0 -61.095 79.938l15.494-3.99a48.043 48.043 0 0 1 45.809-59.943z" fill="#e53d5d"/><path d="m244.68 429.763 6.64 14.557a64 64 0 0 0 36.566-47.461l-15.772-2.7a48.009 48.009 0 0 1 -27.434 35.604z" fill="#e53d5d"/></svg>