<svg id="Line" height="512" viewBox="0 0 64 64" width="512" xmlns="http://www.w3.org/2000/svg"><path d="m62.122 40.217a10.892 10.892 0 0 0 -1.356-4.62 15.312 15.312 0 0 1 -1.354-3.916c-1.235-5.067-2.4-5.749-5.587-6.8-2.345-.77-2.632-1-3.988-2.969-1.819-2.641-2.531-3.7-9.407-3.648h-.821c-7.022 0-8.74 1.722-10.746 3.555a17.631 17.631 0 0 1 -2.984 2.311c-4.269 2.833-4.728 4.182-5.195 7.491-.358 2.539-.467 2.736-1.981 4.449-1.023 1.158-2.182 2.47-2.182 4.139a24.142 24.142 0 0 0 1.063 7.156c.5 1.553 1.963 2.479 3.251 3.3a7.831 7.831 0 0 1 2.1 1.658c.263.362.511.72.755 1.072 2.814 4.054 4.216 4.765 7.8 5.653a6.876 6.876 0 0 1 3.979 1.92c2.82 2.31 4.223 2.849 8.65.554a10.268 10.268 0 0 1 4.485-1.434c4.867-.709 5.628-1.891 6.434-5.471.618-2.743.782-2.9 3.365-4.029 3.648-1.6 4.54-2.421 3.9-7.993a21.64 21.64 0 0 1 -.181-2.378zm-33.785 3.6a4 4 0 0 1 -4-4 1 1 0 0 1 2 0 2 2 0 0 0 2 2 1 1 0 1 1 0 2zm-2-9a4 4 0 1 1 4 4 4 4 0 0 1 -4-4.004zm9 19a4 4 0 1 1 4-4 4 4 0 0 1 -4 3.996zm8.772-25.1a2 2 0 0 0 -2 2 1 1 0 0 1 -2 0 4 4 0 0 1 4-4 1 1 0 0 1 0 2zm4.5 20.5a1 1 0 0 1 -1-1 2 2 0 0 0 -2-2 1 1 0 1 1 0-2 4 4 0 0 1 4 4 1 1 0 0 1 -1 1zm1-8a4 4 0 1 1 4-4 4 4 0 0 1 -4 4z" fill="#c4a2fc"/><path d="m13.291 32.677 6.174-5.557a7.772 7.772 0 0 0 .749 1.038l-7.894 7.894a3.267 3.267 0 0 0 -.962 2.323v8.393a1.292 1.292 0 0 1 -.377.909l-1.616 1.616a1 1 0 1 0 1.414 1.414l1.621-1.616a3.264 3.264 0 0 0 .963-2.323v-8.393a1.281 1.281 0 0 1 .376-.909l5.493-5.493a14.186 14.186 0 0 0 -2.155 7.741c-.005 6.224 3.523 11.286 7.852 11.286s7.857-5.062 7.857-11.286a14.186 14.186 0 0 0 -2.155-7.741l5.493 5.493a1.277 1.277 0 0 1 .376.909v8.393a3.264 3.264 0 0 0 .963 2.323l1.616 1.616a1 1 0 0 0 1.414-1.414l-1.616-1.616a1.3 1.3 0 0 1 -.377-.909v-8.393a3.263 3.263 0 0 0 -.962-2.323l-7.894-7.894a7.868 7.868 0 0 0 .75-1.038l6.173 5.557a7.861 7.861 0 0 0 10.827-.3 3.283 3.283 0 0 0 -.854-5.262l-7.351-3.675 1.778-1.778a1.275 1.275 0 0 1 .909-.376h3.624a1 1 0 0 0 0-2h-3.624a3.26 3.26 0 0 0 -2.323.962l-2.253 2.252c-2.25-1.122-5.927-2.969-6.243-3.114-.087-.229-.183-.453-.289-.67l5.351-1.338a3.286 3.286 0 0 0 2.142-4.657l-3.053-6.114a1.29 1.29 0 0 1 -.136-.575v-4.032a1 1 0 0 0 -2 0v4.032a3.3 3.3 0 0 0 .347 1.468l3.055 6.112a1.285 1.285 0 0 1 -.837 1.822l-6.037 1.509a6.881 6.881 0 0 0 -1.7-1.4 4.4 4.4 0 0 0 -1.979-7.559v-5.984a1 1 0 0 0 -2 0v5.981a4.4 4.4 0 0 0 -1.971 7.559 6.881 6.881 0 0 0 -1.7 1.4l-6.032-1.508a1.285 1.285 0 0 1 -.838-1.822l3.059-6.11a3.3 3.3 0 0 0 .347-1.469v-4.031a1 1 0 0 0 -2 0v4.032a1.29 1.29 0 0 1 -.136.575l-3.05 6.111a3.285 3.285 0 0 0 2.141 4.657l5.351 1.338c-.105.217-.2.441-.289.67-.293.135-4.732 2.36-6.243 3.114l-2.249-2.249a3.264 3.264 0 0 0 -2.324-.962h-3.629a1 1 0 1 0 0 2h3.624a1.273 1.273 0 0 1 .909.376l1.779 1.778-7.352 3.676a3.284 3.284 0 0 0 -.839 5.277 7.857 7.857 0 0 0 10.812.284zm11.638 16.323c-3.175 0-5.857-4.252-5.857-9.286s2.682-9.285 5.857-9.285 5.857 4.252 5.857 9.285-2.686 9.286-5.857 9.286zm20.716-20.095a1.285 1.285 0 0 1 .32 2.074 5.858 5.858 0 0 1 -8.06.211c-2.968-2.662-6.379-5.757-6.661-5.974a9.006 9.006 0 0 0 .4-2.645c0-.23-.012-.457-.029-.682zm-23.145-16.619a2.429 2.429 0 1 1 2.429 2.428 2.432 2.432 0 0 1 -2.429-2.428zm2.429 4.428c2.6 0 4.714 2.628 4.714 5.857s-2.114 5.858-4.714 5.858-4.714-2.628-4.714-5.858 2.114-5.857 4.714-5.857zm-20.716 12.191 14.031-7.016c-.016.225-.029.452-.029.682a8.973 8.973 0 0 0 .4 2.645c-.255.194-4.865 4.362-6.662 5.974a5.863 5.863 0 0 1 -8.075-.226 1.285 1.285 0 0 1 .335-2.059z" fill="#151a6a"/></svg>