<svg height="512" viewBox="0 0 64 64" width="512" xmlns="http://www.w3.org/2000/svg"><g id="flat"><path d="m26 46s2.5-19.167 10-14c7.253 5-10 14-10 14z" fill="#f9bb4b"/><path d="m26 46s-11.333-13.583-3-15c7.887-1.341 3 15 3 15z" fill="#ffd782"/><path d="m26.819 46.573 7-10-1.638-1.146-5.659 8.084-1.542-7.707-1.96.392 2 10z" fill="#d3843d"/><path d="m5.555 57.832-1.11-1.664 10.487-6.991 1.068 1.691z" fill="#5a6470"/><path d="m21.02 62.2-1-5a1 1 0 0 1 .2-.821l4-5 2.761-.25-4.908 6.136.907 4.535z" fill="#143441"/><path d="m27 62h-2v-5a1.012 1.012 0 0 1 .071-.372l2.429-6.268 2.5-.666-3 7.5z" fill="#143441"/><path d="m38.98 62.2-1.96-.4.906-4.531-5.5-6.6 2.343-.314 5 6a1 1 0 0 1 .211.836z" fill="#143441"/><path d="m35 62h-2v-4.7l-4.572-6.858h2.4l4 6a1.006 1.006 0 0 1 .172.558z" fill="#143441"/><path d="m49 3a10.987 10.987 0 0 0 -8.156 18.363l-.844 7.637 8-4h1a11 11 0 0 0 0-22z" fill="#d9176c"/><path d="m57 10h-1.586l1.293-1.293-1.414-1.414-1.293 1.293v-1.586h-2v1.586l-1.293-1.293-1.414 1.414 1.293 1.293h-1.586v2h1.586l-1.293 1.293 1.414 1.414 1.293-1.293v1.586h2v-1.586l1.293 1.293 1.414-1.414-1.293-1.293h1.586z" fill="#dc93bf"/><path d="m49 16h-1.586l1.293-1.293-1.414-1.414-1.293 1.293v-1.586h-2v1.586l-1.293-1.293-1.414 1.414 1.293 1.293h-1.586v2h1.586l-1.293 1.293 1.414 1.414 1.293-1.293v1.586h2v-1.586l1.293 1.293 1.414-1.414-1.293-1.293h1.586z" fill="#dc93bf"/><circle cx="53" cy="11" fill="#da1c4b" r="2"/><circle cx="45" cy="17" fill="#da1c4b" r="2"/><path d="m43 9h2v2h-2z" fill="#32b1cc"/><path d="m46 6h2v2h-2z" fill="#32b1cc"/><path d="m53 17h2v2h-2z" fill="#32b1cc"/><path d="m50 20h2v2h-2z" fill="#32b1cc"/><path d="m18 45h2a2 2 0 0 1 2 2v4a2 2 0 0 1 -2 2h-2a4 4 0 0 1 -4-4 4 4 0 0 1 4-4z" fill="#394d5c"/><path d="m30 51a10.343 10.343 0 0 1 -4 1 10.343 10.343 0 0 1 -4-1v-4a10.343 10.343 0 0 1 4-1 10.343 10.343 0 0 1 4 1z" fill="#7d8d9c"/><path d="m42 46v6c2.107.263 4-.875 4-3 0-2.125-1.893-3.263-4-3z" fill="#5a6470"/><path d="m38 46.333v5.334l4 .333v-6z" fill="#394d5c"/><path d="m34 51.333 4 .334v-5.334l-4 .334z" fill="#5a6470"/><path d="m34 46.667-4 .333v4l4 .333z" fill="#394d5c"/><path d="m17 48h2v2h-2z" fill="#7d8d9c"/><g fill="#da1c4b"><path d="m13 41h-2v-4a1 1 0 0 0 -1-1h-3a3 3 0 0 1 -3-3v-3h2v3a1 1 0 0 0 1 1h3a3 3 0 0 1 3 3z"/><path d="m17 33h-2v-7a1 1 0 0 0 -1-1h-2a3 3 0 0 1 -3-3v-3h2v3a1 1 0 0 0 1 1h2a3 3 0 0 1 3 3z"/><path d="m4 26h2v2h-2z"/><path d="m48 44h-2v-3a3 3 0 0 1 3-3h5a1 1 0 0 0 1-1v-3h2v3a3 3 0 0 1 -3 3h-5a1 1 0 0 0 -1 1z"/><path d="m44 40h-2v-3a3 3 0 0 1 3-3h2a1 1 0 0 0 1-1v-3h2v3a3 3 0 0 1 -3 3h-2a1 1 0 0 0 -1 1z"/><path d="m55 30h2v2h-2z"/></g></g></svg>