<svg id="Layer_1" enable-background="new 0 0 512 512" height="512" viewBox="0 0 512 512" width="512" xmlns="http://www.w3.org/2000/svg"><g><g><g><g><g><circle cx="376" cy="276" fill="#ffd205" r="120"/></g></g></g></g><g><path d="m458.667 247.5h-7.961c-.89-10.089-4.783-19.958-11.672-28.17l5.631-5.631c1.758-1.757 1.758-4.606 0-6.364-1.758-1.757-4.607-1.757-6.363 0l-5.631 5.631c-8.212-6.889-18.081-10.782-28.171-11.672v-7.96c0-2.485-2.015-4.5-4.5-4.5s-4.5 2.015-4.5 4.5v7.96c-10.09.89-19.958 4.784-28.171 11.672l-5.631-5.631c-1.756-1.758-4.607-1.757-6.363 0-1.758 1.757-1.758 4.606 0 6.364l5.483 5.483-65.636 65.636-5.496-5.495c-1.758-1.757-4.607-1.757-6.363 0-1.758 1.757-1.758 4.606 0 6.364l5.657 5.657c.041.041.09.069.132.108-3.919 6.185-3.193 14.468 2.201 19.862l49.373 49.373c5.394 5.394 13.676 6.12 19.861 2.202.036.038.061.083.098.12l5.656 5.657c.878.879 2.03 1.318 3.182 1.318s2.304-.439 3.182-1.318c1.758-1.757 1.758-4.606 0-6.364l-5.483-5.483 29.637-29.637 5.483 5.483c.878.879 2.03 1.318 3.182 1.318s2.304-.439 3.182-1.318c1.758-1.757 1.758-4.606 0-6.364l-5.483-5.483 29.637-29.637 5.483 5.483c.878.879 2.03 1.318 3.182 1.318s2.304-.439 3.182-1.318c1.758-1.757 1.758-4.606 0-6.364l-5.631-5.631c6.889-8.212 10.782-18.081 11.672-28.17h7.961c2.485 0 4.5-2.015 4.5-4.5s-2.017-4.499-4.502-4.499z" fill="#23aae6"/><g><g><g><g><path d="m420 272-68 68-40-40 68-68c11.046-11.046 28.954-11.046 40 0 11.046 11.046 11.046 28.954 0 40z" fill="#5ad7ff"/></g></g></g></g><g><g><g><g><path d="m312 304c-1.023 0-2.048-.391-2.828-1.171-1.563-1.563-1.563-4.095 0-5.657l68-68c6.098-6.098 14.205-9.456 22.828-9.456s16.73 3.358 22.828 9.456c1.563 1.563 1.563 4.095 0 5.657-1.561 1.562-4.096 1.562-5.656 0-9.469-9.469-24.875-9.469-34.344 0l-68 68c-.78.78-1.805 1.171-2.828 1.171z" fill="#a5ffff"/></g></g></g></g></g><g><g><g><g><g><path d="m344 140h-72v-32.066c0-17.637-14.297-31.934-31.934-31.934h-80.066c-8.836 0-16 7.164-16 16v48h-96v296h288l-50.745-50.745c-28.976-28.976-45.255-68.276-45.255-109.255v-24h80c17.673 0 32-14.327 32-32v-72c0-4.418-3.582-8-8-8z" fill="#fab991"/></g></g></g></g><g><g><g><g><path d="m239.934 140h32.066v-32.066c0-17.637-14.297-31.934-31.934-31.934h-32.066v32.066c0 17.637 14.297 31.934 31.934 31.934z" fill="#f0915a"/></g></g></g></g><g><g><g><g><path d="m144 252c0-26.51 21.49-48 48-48h80c26.51 0 48-21.49 48-48v-5.333h32v69.333c0 17.673-14.327 32-32 32z" fill="#f0915a"/></g></g></g></g><g><g><g><g><path d="m80 236c-35.346 0-64-28.654-64-64 0-53.019 42.981-96 96-96h48c-8.837 0-16 7.163-16 16v80c0 35.346-28.654 64-64 64z" fill="#463c4b"/></g></g></g></g><g><g><g><g><path d="m160 116c0 8.836 7.164 16 16 16s16-7.164 16-16l-30.116-7.529c-1.2 2.244-1.884 4.806-1.884 7.529z" fill="#463c4b"/></g></g></g></g><g><g><g><g><path d="m224 116c0 8.836 7.164 16 16 16s16-7.164 16-16c0-2.723-.684-5.285-1.884-7.529z" fill="#463c4b"/></g></g></g></g><g><g><g><g><path d="m336 172c8.837 0 16-7.163 16-16v-8c0-4.418-3.582-8-8-8h-16c-4.418 0-8 3.582-8 8v8c0 8.837 7.163 16 16 16z" fill="#463c4b"/></g></g></g></g><g><g><g><g><path d="m48 252h192v24h-192z" fill="#5ad7ff"/></g></g></g></g><g><g><g><g><path d="m144 252h96v24h-96z" fill="#23aae6"/></g></g></g></g><g><g><g><g><path d="m240 276h-96v160h192l-50.745-50.745c-28.976-28.976-45.255-68.276-45.255-109.255z" fill="#f0915a"/></g></g></g></g><g><g><g><g><path d="m208 204h144v16h-160c0-8.837 7.163-16 16-16z" fill="#463c4b"/></g></g></g></g><g><g><g><g><g><path d="m288 220v8c0 4.418 3.582 8 8 8 4.418 0 8 3.582 8 8v8c0 4.418 3.582 8 8 8 4.418 0 8-3.582 8-8v-32c0-4.418-3.582-8-8-8h-16c-4.418 0-8 3.582-8 8z" fill="#d7e6f0"/></g></g></g></g><g><g><g><g><path d="m208 220v16c0 4.418 3.582 8 8 8 4.418 0 8-3.582 8-8 0-4.418 3.582-8 8-8 4.418 0 8 3.582 8 8v24c0 4.418 3.582 8 8 8 4.418 0 8-3.582 8-8v-40c0-4.418-3.582-8-8-8h-32c-4.418 0-8 3.582-8 8z" fill="#d7e6f0"/></g></g></g></g></g></g></g></svg>