<svg id="Layer_1" enable-background="new 0 0 512 512" height="512" viewBox="0 0 512 512" width="512" xmlns="http://www.w3.org/2000/svg"><g><path d="m256 22c-135.31 0-245 109.69-245 245 0 71.09 30.289 135.096 78.653 179.85l1-.438v-21.394c0-2.484 2.021-4.505 4.505-4.505h119.644c2.484 0 4.505 2.021 4.505 4.505v83.226l1 1.159c11.653 1.701 23.568 2.597 35.693 2.597 135.31 0 245-109.69 245-245s-109.69-245-245-245z" fill="#8ac9fe"/><g><g><path d="m301.89 3v43l2.391 1h44.054l2.504-1v-43c0-1.657-1.343-3-3-3h-42.949c-1.657 0-3 1.343-3 3z" fill="#cecece"/></g><path d="m322.051 3c0-1.657 1.343-3 3-3h-20.161c-1.657 0-3 1.343-3 3v43h20.161z" fill="#bfbfbf"/><path d="m301.89 46h48.949v94h-48.949z" fill="#f8f6f6"/><path d="m301.89 46h20.161v94h-20.161z" fill="#e2e2e2"/><g><g><g><path d="m88.029 42.377-16.257 28.16c-8.331 14.428 2.082 32.463 18.742 32.463 16.66 0 27.073-18.035 18.743-32.463l-16.258-28.16c-1.104-1.913-3.865-1.913-4.97 0z" fill="#fe646f"/></g><path d="m87.932 70.537 10.663-18.468-5.595-9.691c-1.104-1.913-3.866-1.913-4.97 0l-16.258 28.159c-8.331 14.428 2.082 32.463 18.742 32.463 2.908 0 5.619-.56 8.08-1.543-11.637-4.653-17.538-19.01-10.662-30.92z" fill="#fd4755"/></g><g><g><g><path d="m200.803 333.754v-43.063h-31.916v-15.367c0-4.244-3.44-7.684-7.684-7.684h-79.294c-12.731 0-23.051 10.32-23.051 23.051v61.994c0 10.101 3.978 19.795 11.073 26.985l23.955 24.275c4.599 4.66 7.878 10.376 9.623 16.57h102.991c1.787-6.224 5.126-11.956 9.795-16.609l6.532-6.511c-13.79-17.542-22.024-39.648-22.024-63.641z" fill="#fed2a4"/><path d="m200.803 191.67c-4.222-5.339-10.751-8.768-18.086-8.768-12.731 0-23.051 10.32-23.051 23.051v-8.816c0-12.731-10.32-23.051-23.051-23.051-12.73 0-23.051 10.32-23.051 23.051v-59.505c0-12.731-10.32-23.051-23.051-23.051-12.731 0-23.051 10.32-23.051 23.051v136.421c3.873-3.367 8.923-5.412 14.445-5.412h79.294c3.686 0 6.684 2.998 6.684 6.684v16.343c0 4.252-1.276 8.207-3.45 11.522 4.214 5.481 10.833 9.016 18.281 9.016 7.335 0 13.864-3.43 18.086-8.768v-111.768z" fill="#fed2a4"/><g><path d="m136.389 267.64v-70.504c0-8.574 4.692-16.04 11.638-20.01-3.367-1.925-7.256-3.04-11.412-3.04-12.731 0-23.051 10.32-23.051 23.051v70.504h22.825z" fill="#ffbd86"/></g><g fill="#ffbd86"><path d="m182.632 289.154v-83.202c0-8.545 4.661-15.986 11.568-19.968-3.383-1.95-7.297-3.083-11.483-3.083-12.731 0-23.051 10.32-23.051 23.051v61.688h1.537c4.243 0 7.683 3.44 7.683 7.684v15.367.976c0 4.577-1.394 8.829-3.779 12.355 4.228 5.003 10.546 8.183 17.609 8.183 4.186 0 8.099-1.133 11.483-3.083-6.906-3.981-11.567-11.423-11.567-19.968z"/><path d="m81.909 267.64h8.238v-130.009c0-8.604 4.723-16.093 11.709-20.053-3.351-1.899-7.215-2.997-11.342-2.997-12.731 0-23.051 10.32-23.051 23.05v135.102c3.954-3.183 8.976-5.093 14.446-5.093z"/></g></g><g><path d="m214.801 419.514h-119.643c-3.04 0-5.505 2.465-5.505 5.505v21.832c35.441 32.796 80.587 55.244 130.654 62.553v-84.385c-.001-3.041-2.465-5.505-5.506-5.505z" fill="#fe646f"/></g><g><path d="m89.653 425.019v21.832c13.196 12.211 27.734 22.991 43.375 32.086v-53.918c0-3.04 2.465-5.505 5.505-5.505h-43.375c-3.041 0-5.505 2.464-5.505 5.505z" fill="#fd4755"/></g></g><g><g><circle cx="90.514" cy="139.034" fill="#fd4755" r="8.808"/></g></g><g><path d="m161.203 267.64h-79.294c-12.731 0-23.051 10.32-23.051 23.051v61.993c0 10.101 3.978 19.795 11.073 26.985l23.955 24.275h9.388c24.073 0 43.582-19.075 43.536-43.158-.027-14.027-7.901-26.871-20.145-33.713l-23.858-13.331h44.003c12.192 0 22.075-9.883 22.075-22.075v-.975-15.367c.002-4.245-3.438-7.685-7.682-7.685z" fill="#ffe5c2"/></g></g></g><g><g><path d="m348.779 437.9h-44.83c-57.518 0-104.146-46.628-104.146-104.146v-142.68c0-28.759 23.314-52.073 52.073-52.073h148.976c28.759 0 52.073 23.314 52.073 52.073v142.68c.001 57.518-46.627 104.146-104.146 104.146z" fill="#9c9c9c"/></g><path d="m225.84 333.754v-142.68c0-14.357 11.68-26.037 26.037-26.037h17.108c9.005-15.56 25.818-26.037 45.089-26.037h-62.197c-28.759 0-52.073 23.314-52.073 52.073v142.681c0 57.518 46.628 104.146 104.146 104.146h44.83c2.925 0 5.82-.127 8.684-.363-23.171-1.913-44.188-11.414-60.568-26.007-39.776-3.58-71.056-37.086-71.056-77.776z" fill="#838383"/><g><path d="m303.949 411.863c-43.07 0-78.11-35.04-78.11-78.11v-142.68c0-14.357 11.68-26.037 26.037-26.037h148.976c14.357 0 26.037 11.68 26.037 26.037v142.68c0 43.07-35.04 78.11-78.11 78.11z" fill="#cecece"/></g><path d="m277.951 333.754v-13.205h-20.867c-5.752 0-10.415-4.663-10.415-10.415v-102.819c0-5.752 4.663-10.415 10.415-10.415h20.867v-5.827c0-14.357 11.68-26.036 26.037-26.036h-52.111c-14.357 0-26.037 11.68-26.037 26.036v142.681c0 43.07 35.04 78.11 78.11 78.11h44.83c1.221 0 2.433-.037 3.641-.092-41.386-1.91-74.47-36.17-74.47-78.018z" fill="#bfbfbf"/><g><g><path d="m282.102 379.607h-3.124c-11.504 0-20.829-9.326-20.829-20.829 0-11.504 9.326-20.829 20.829-20.829h3.124c11.504 0 20.829 9.326 20.829 20.829 0 11.504-9.325 20.829-20.829 20.829z" fill="#fe646f"/></g><path d="m279 358.778c0-8.329 4.901-15.496 11.966-18.828-2.693-1.27-5.689-2.001-8.864-2.001h-3.124c-11.504 0-20.829 9.326-20.829 20.829 0 11.504 9.326 20.829 20.829 20.829h3.124c3.174 0 6.171-.731 8.864-2.001-7.065-3.332-11.966-10.499-11.966-18.828z" fill="#fd4755"/><g><path d="m373.751 379.607h-3.124c-11.504 0-20.829-9.326-20.829-20.829 0-11.504 9.326-20.829 20.829-20.829h3.124c11.504 0 20.829 9.326 20.829 20.829 0 11.504-9.325 20.829-20.829 20.829z" fill="#26a6fe"/></g><path d="m370.217 358.778c0-8.415 5-15.646 12.182-18.932-2.637-1.207-5.559-1.897-8.648-1.897h-3.124c-11.504 0-20.829 9.326-20.829 20.829 0 11.504 9.326 20.829 20.829 20.829h3.124c3.089 0 6.011-.691 8.648-1.897-7.182-3.286-12.182-10.517-12.182-18.932z" fill="#0593fc"/></g><g><path d="m395.645 320.549h-138.562c-5.752 0-10.415-4.663-10.415-10.415v-102.819c0-5.752 4.663-10.415 10.415-10.415h138.562c5.752 0 10.415 4.663 10.415 10.415v102.819c0 5.752-4.663 10.415-10.415 10.415z" fill="#fff"/></g><g><path d="m288.412 310.134v-102.819c0-5.752 4.663-10.415 10.415-10.415h-41.743c-5.752 0-10.415 4.663-10.415 10.415v102.819c0 5.752 4.663 10.415 10.415 10.415h41.743c-5.752 0-10.415-4.663-10.415-10.415z" fill="#eaf6ff"/></g></g><g><g><circle cx="388.364" cy="303.4" fill="#26a6fe" r="7.5"/></g><g><circle cx="264.364" cy="303.4" fill="#26a6fe" r="7.5"/></g><g><circle cx="264.364" cy="282.4" fill="#fd4755" r="7.5"/></g></g><g><path d="m311.913 222.4h-14.825c-6.86 0-12.441 5.581-12.441 12.441v18.117c0 6.86 5.581 12.441 12.441 12.441h12.265v13h-15.01c-4.142 0-7.5 3.358-7.5 7.5s3.358 7.5 7.5 7.5h17.568c6.86 0 12.441-5.581 12.441-12.441v-46.118c.001-6.859-5.58-12.44-12.439-12.44zm-2.56 28h-9.706v-13h9.706z" fill="#0172fb"/><g><path d="m355.64 293.4h-14.825c-6.859 0-12.44-5.581-12.44-12.44v-46.119c0-6.86 5.581-12.441 12.441-12.441h14.823c6.86 0 12.441 5.581 12.441 12.441v46.118c.002 6.86-5.58 12.441-12.44 12.441zm-12.265-15h9.706v-41h-9.706z" fill="#0172fb"/></g></g></g></g></svg>