<svg id="Capa_1" enable-background="new 0 0 512 512" height="512" viewBox="0 0 512 512" width="512" xmlns="http://www.w3.org/2000/svg"><g><g><path d="m331.849 208.043-.559-2.287-61.129 31.235.921 8.011c3.681 32.018-8.631 72.184-24.22 100.14-29.722-15.381-60.387-44.073-74.847-74.545l-.989-2.085-63.974 29.027 2.069 4.302c22.098 45.942 65.55 85.856 111.879 107.498v87.661c0 8.284 6.716 15 15 15h40c8.284 0 15-6.716 15-15v-92.551c20.604-25.744 36.68-58.504 43.459-91.967 6.795-33.544 5.893-69.659-2.61-104.439z" fill="#fff5f5"/><path d="m331.29 205.757-61.129 31.235.921 8.011c2.919 25.393-4.225 55.907-15.082 81.395v185.602h20c8.284 0 15-6.716 15-15v-92.551c20.604-25.744 36.68-58.504 43.459-91.967 6.795-33.544 5.893-69.659-2.61-104.438z" fill="#ebebf0"/><g><g><path d="m305.567 0h-119.548c-102.01 0-185.006 82.991-185.012 185l-.007 122.884c-.001 14.392 5.603 27.922 15.779 38.099s23.707 15.781 38.098 15.781c18.348 0 35.254-9.195 45.226-24.596 16.27-25.129 41.269-42.788 70.392-49.722l84.903-20.215c47.726-11.363 88.249-43.64 110.169-87.231l50.433-99z" fill="#ff6c6c"/><path d="m256 0v267.08c47.463-11.491 87.739-43.672 109.567-87.079l50.433-99.001-110.433-81z" fill="#ff2828"/><path d="m466 0h-160.433v15c0 25.812 9.233 50.772 26.032 70.37l7.937 9.26c16.798 19.598 26.032 44.558 26.032 70.37v15.001s0 0 0-.001h10.432c74.439 0 135-60.561 135-135 0-24.813-20.187-45-45-45z" fill="#c30047"/></g></g></g><g><g><circle cx="76" cy="240" fill="#ff2828" r="15"/><circle cx="296" cy="165" fill="#c30047" r="15"/><g><g><g><g><g><path d="m181 120h-30v-45c0-8.284 6.716-15 15-15 8.284 0 15 6.716 15 15z" fill="#c30047"/></g><g><path d="m166 230c-8.284 0-15-6.716-15-15v-45h30v45c0 8.284-6.716 15-15 15z" fill="#c30047"/></g><g><path d="m137.716 137.929-31.82-31.82c-5.858-5.858-5.858-15.355 0-21.213 5.858-5.858 15.356-5.858 21.213 0l31.819 31.82z" fill="#c30047"/></g><g><path d="m204.89 205.104-31.819-31.82 21.213-21.213 31.82 31.82c5.858 5.858 5.858 15.355 0 21.213-5.858 5.858-15.356 5.858-21.214 0z" fill="#c30047"/></g><g><path d="m141 160h-45c-8.284 0-15-6.716-15-15 0-8.284 6.716-15 15-15h45z" fill="#c30047"/></g><g><path d="m236 160h-45v-30h45c8.284 0 15 6.716 15 15 0 8.284-6.716 15-15 15z" fill="#c30047"/></g><g><path d="m105.896 205.104c-5.858-5.858-5.858-15.355 0-21.213l31.82-31.82 21.213 21.213-31.819 31.82c-5.858 5.858-15.356 5.858-21.214 0z" fill="#c30047"/></g><g><path d="m194.284 137.929-21.213-21.213 31.819-31.82c5.858-5.858 15.355-5.858 21.213 0 5.858 5.858 5.858 15.355 0 21.213z" fill="#c30047"/></g><g><path d="m166 200c-30.327 0-55-24.673-55-55s24.673-55 55-55 55 24.673 55 55-24.673 55-55 55z" fill="#ff2828"/></g></g></g></g></g></g></g></g></svg>